<svg xmlns="http://www.w3.org/2000/svg" viewBox="0 0 623.62 255.12"><defs><style>.cls-1{fill:#fff;}.cls-2{fill:#1d1d1b;}.cls-3{fill:#9c9b9b;}.cls-4{fill:#17223b;}.cls-5{fill:#213465;}.cls-6{fill:#88b8e4;}</style></defs><title>liferay</title><g id="BG"><rect class="cls-1" width="623.62" height="255.12"/></g><g id="Logo"><path class="cls-2" d="M590.74,167.34c0-1.56-.92-2.34-2.85-2.34h-3.11v8.2h1.27v-3.53h1.3l2.24,3.53h1.33l-2.34-3.62A2.13,2.13,0,0,0,590.74,167.34Zm-3.42,1.31h-1.27V166h1.62c.84,0,1.81.14,1.81,1.27C589.48,168.6,588.41,168.65,587.32,168.65Zm.14-6.53a7,7,0,1,0,7,7A6.91,6.91,0,0,0,587.46,162.12Zm0,13a6,6,0,1,1,5.75-6A5.8,5.8,0,0,1,587.46,175.09Z"/><path class="cls-2" d="M227.91,168.36H199.37V85a20.78,20.78,0,0,1,.46-4.17l.38-1.84H186.64l.38,1.84a20.81,20.81,0,0,1,.45,4.17v85.36a18.67,18.67,0,0,1-.44,3.87l-.42,1.86h46.8v-8.74l-2,.57A12.88,12.88,0,0,1,227.91,168.36Z"/><path class="cls-2" d="M256.07,170.17V85a14.89,14.89,0,0,1,.41-4l.61-2H243.31l.4,1.85a19.69,19.69,0,0,1,.45,4.09v85.22a19.69,19.69,0,0,1-.45,4.09l-.39,1.85h13.77l-.61-2A14.71,14.71,0,0,1,256.07,170.17Z"/><path class="cls-2" d="M276.32,80.86a18.79,18.79,0,0,1,.46,4v85.29a19.06,19.06,0,0,1-.46,4.09l-.39,1.85h13.6l-.4-1.85a19.69,19.69,0,0,1-.45-4.09v-40h23.73a18.14,18.14,0,0,1,4.36.44l1.9.46v-8.69l-1.87.42a19.39,19.39,0,0,1-4.25.52H288.68v-37H316a30.29,30.29,0,0,1,4.9.39l1.78.29V79H275.93Z"/><path class="cls-2" d="M374.53,122.89H346.41V86.28h29.16a11.44,11.44,0,0,1,3.68.6l2,.69V79H333.51l.58,2a15.22,15.22,0,0,1,.42,4v85.15a28.68,28.68,0,0,1-.33,4.18l-.26,1.76h47.43v-8.7l-1.77.28c-3.22.5-4.47.65-4.84.67H346.41V129.75h28.25a29.07,29.07,0,0,1,4.88.31l1.81.34v-8.71l-2,.57A17.4,17.4,0,0,1,374.53,122.89Z"/><path class="cls-2" d="M536.52,170.46l-32.77-88.1a11.13,11.13,0,0,1-.48-2l-.2-1.3H492.35l-.18,1.32a11.27,11.27,0,0,1-.56,2.58L460,170.43c-.19.48-.48,1.12-.83,1.87a16.39,16.39,0,0,1-2.36-2.05l-35.11-39.19c8.68-.94,15.51-3.41,20.33-7.34,5.49-4.49,8.28-10.76,8.28-18.65a24.2,24.2,0,0,0-4.53-14.4A25,25,0,0,0,435,82.09,41.52,41.52,0,0,0,418.55,79H395.92l.4,1.85a19.69,19.69,0,0,1,.45,4.09v85.22a19.69,19.69,0,0,1-.45,4.09l-.4,1.85h13.6l-.4-1.85a19.62,19.62,0,0,1-.45-4.09V133.83l33.71,38a15.37,15.37,0,0,1,2.41,3.43l.41.88h21.51l.05-1.49a10.47,10.47,0,0,1,.39-3.1l10-27.37h36.9l10.05,27.33a13.48,13.48,0,0,1,.69,3.23l.12,1.4h14.93l-1.51-2.36A19.52,19.52,0,0,1,536.52,170.46Zm-25.29-33.17H479.44L495,94.2Zm-102.56-51h6.61c6.57,0,11.66,1.22,15.13,3.65a17.5,17.5,0,0,1,5.7,6.66,20.09,20.09,0,0,1,2.06,9c0,7.23-2.93,12.43-9,15.89a25.26,25.26,0,0,1-12.54,3.17h-8Z"/><path class="cls-2" d="M584.53,79l-.34,1.08a19.31,19.31,0,0,1-1.35,3.24l-21.6,40.38L540.12,83.64a23,23,0,0,1-1.56-3.49l-.3-1.14H523.32l1.9,2.46a22.81,22.81,0,0,1,1.95,3.23l25.5,48v37.44a19.62,19.62,0,0,1-.45,4.09l-.4,1.85h13.6l-.39-1.85a19.65,19.65,0,0,1-.46-4.09V132.73L590.4,84.31a27.11,27.11,0,0,1,1.85-2.86L594,79Z"/><rect class="cls-3" x="29.16" y="64.23" width="126.66" height="126.66" rx="5.58" ry="5.58"/><rect class="cls-1" x="31.27" y="66.34" width="122.44" height="122.44" rx="3.47" ry="3.47"/><rect class="cls-4" x="43.94" y="79.01" width="21.11" height="21.11"/><rect class="cls-5" x="69.27" y="79.01" width="21.11" height="21.11"/><rect class="cls-6" x="94.6" y="79.01" width="21.11" height="21.11"/><rect class="cls-6" x="43.94" y="129.67" width="21.11" height="21.11"/><rect class="cls-5" x="43.94" y="104.34" width="21.11" height="21.11"/><rect class="cls-6" x="69.27" y="104.34" width="21.11" height="21.11"/><rect class="cls-5" x="94.6" y="155" width="21.11" height="21.11"/><rect class="cls-4" x="119.93" y="155" width="21.11" height="21.11"/><rect class="cls-6" x="69.27" y="155" width="21.11" height="21.11"/><rect class="cls-6" x="119.94" y="104.34" width="21.11" height="21.11"/><rect class="cls-5" x="119.94" y="129.67" width="21.11" height="21.11"/><rect class="cls-6" x="94.6" y="129.67" width="21.11" height="21.11"/></g></svg>