<svg xmlns="http://www.w3.org/2000/svg" viewBox="0 0 623.62 255.12"><defs><style>.cls-1{fill:#fff;}.cls-2{fill:#0064c1;}</style></defs><title>shellrent</title><g id="BG"><rect class="cls-1" width="623.62" height="255.12"/></g><g id="Logo"><path class="cls-2" d="M105.58,153.45a12.06,12.06,0,0,0-4.24-2.93,12.45,12.45,0,0,0-2.48-.67c-.41-.09-.86-.09-1.28-.15s-.85,0-1.29,0a19.87,19.87,0,0,0-4.54.65l0,.3c.69.48,1.44,1,2.23,1.7a28.27,28.27,0,0,1,2.52,2.35,27.34,27.34,0,0,1,2.46,3,26.29,26.29,0,0,1,2.14,3.53,24.36,24.36,0,0,1,1.53,3.94,24.66,24.66,0,0,1,.87,4.79,32.58,32.58,0,0,0,4-13.78A15.64,15.64,0,0,0,105.58,153.45ZM91.89,139a24.24,24.24,0,0,0-2,1.33,29.37,29.37,0,0,1,7.07.28,21.36,21.36,0,0,1,7.94,2.93l.85.58a33.77,33.77,0,0,0-4.36-8,25.1,25.1,0,0,0-4.87.95A22.85,22.85,0,0,0,91.89,139ZM57.45,186.48a38.37,38.37,0,0,1-8.06,2.08c-.61.09-1.2.21-1.76.27l-1.49.15a49,49,0,0,1-4.73-2.41,67,67,0,0,1-7.56-5.47c.83.1,1.67.17,2.51.22l1.64,0c.55,0,1.1,0,1.65,0h.88l.77-.05.78-.05.39,0,.43-.05,1.69-.18,1.64-.25c.55-.08,1.09-.21,1.63-.31s1.08-.23,1.62-.36a44.31,44.31,0,0,0,6.19-2,40.09,40.09,0,0,0,10.08-6,37.69,37.69,0,0,0,4.22-4,17.37,17.37,0,0,0,2.78.38,24.63,24.63,0,0,1-2.12,6.64c-.08.16-.15.32-.23.47s-.17.31-.25.46l-.53.93-.6.89a4.5,4.5,0,0,1-.31.45l-.33.43A22.79,22.79,0,0,1,65.32,182,27,27,0,0,1,57.45,186.48Zm-21.15-11,1.4-.08c.46,0,.94-.1,1.41-.14l.64-.07.77-.12.76-.12.39-.05.34-.07,1.35-.27,1.39-.34c.46-.1.91-.25,1.36-.37s.9-.27,1.34-.42a35.18,35.18,0,0,0,5-2.09,32.42,32.42,0,0,0,7.68-5.43c.63-.61,1.19-1.2,1.69-1.77a23.07,23.07,0,0,1-3.19-3.07l-.21.09c-.91.39-2,.8-3.32,1.23a45,45,0,0,1-4.4,1.19,39.16,39.16,0,0,1-5.35.8c-1,.11-1.94.12-3,.15l-1.53,0-.78,0-.78-.07a32.46,32.46,0,0,1-6.37-1.1l-1.59-.48-.4-.12-.39-.15-.77-.3L29,162l-.39-.15-.37-.18-1.51-.73c-.5-.22-1-.53-1.45-.8s-1-.55-1.42-.84l-1.35-.94c-.44-.32-.89-.61-1.3-1l-1.24-1-.61-.51-.56-.55c-.38-.36-.75-.73-1.13-1.08-.18-.19-.37-.36-.54-.55l-.51-.57-1-1.12h0a52.13,52.13,0,0,0,11,21.91,17.38,17.38,0,0,0,4.4,1.31A26.39,26.39,0,0,0,36.3,175.49Zm8.51-51.63a38.73,38.73,0,0,1-7.78-13A37.28,37.28,0,0,1,35.1,96a48,48,0,0,1,2-10.61A85.83,85.83,0,0,0,18.25,116c.05.2.09.39.15.6a30.94,30.94,0,0,0,4,9.17,25.67,25.67,0,0,0,3.55,4.3A27.77,27.77,0,0,0,28.11,132a28.06,28.06,0,0,0,2.35,1.7A38.87,38.87,0,0,0,41,138.38a68.27,68.27,0,0,0,10.11,2.06l1.6.2a32.34,32.34,0,0,1,2.08-8.25A51.25,51.25,0,0,1,44.81,123.86Zm52.27,49.56A16.48,16.48,0,0,0,95.44,168,16.13,16.13,0,0,0,94,165.64a18.3,18.3,0,0,0-1.79-2,17.1,17.1,0,0,0-2-1.63c-.42-.31-.85-.59-1.27-.85.22.65.44,1.34.64,2.08.17.57.3,1.17.44,1.79s.27,1.27.37,1.94a33.2,33.2,0,0,1,.39,4.24c0,.74,0,1.49,0,2.26s-.12,1.52-.21,2.29a26.66,26.66,0,0,1-1,4.57,27.42,27.42,0,0,1-2.93,6.39,45.92,45.92,0,0,0,10.5-8.11A23.12,23.12,0,0,0,97.08,173.42ZM85.1,62.66c-.67.47-1.36,1-2.1,1.53S81.51,65.34,80.74,66c-1.55,1.27-3.15,2.73-4.76,4.34a49.6,49.6,0,0,0-4.6,5.43,39.85,39.85,0,0,0-3.81,6.47,34.7,34.7,0,0,0-2.39,7.26,35.07,35.07,0,0,0,.35,14.94,48,48,0,0,0,4.52,11.68,28.59,28.59,0,0,1,9.85-2,53.17,53.17,0,0,1,.47-7.17,57.35,57.35,0,0,1,1.25-6.27c.14-.55.32-1.09.49-1.65l.25-.84c.09-.28.19-.56.29-.84.2-.56.4-1.13.61-1.7l.71-1.7c.12-.28.23-.57.36-.85s.28-.56.41-.84c.28-.56.55-1.14.84-1.7.64-1.1,1.23-2.24,2-3.31.36-.53.7-1.09,1.07-1.62l1.17-1.56c.19-.26.38-.53.59-.78l.63-.75L92.27,81A53.89,53.89,0,0,1,104,71.47l1.54-.9.76-.45c.25-.15.52-.27.77-.4l3-1.53c2-.86,3.88-1.75,5.69-2.36l1.66-.6a107.18,107.18,0,0,0-32.32-2.6Zm37.11,3.83-.64.23-2.22.8-2.42,1c-1.71.66-3.46,1.6-5.34,2.5l-2.79,1.59c-.23.13-.48.26-.71.41l-.69.45-1.41.93a49.91,49.91,0,0,0-10.45,9.32,44.86,44.86,0,0,0-4,5.8c-.61,1-1.1,2-1.62,3-.25.5-.45,1-.68,1.54s-.45,1-.63,1.55-.38,1-.56,1.54-.32,1-.48,1.54l-.23.76c-.06.25-.12.51-.19.76-.12.5-.25,1-.36,1.49a48.75,48.75,0,0,0-.87,5.63,46.24,46.24,0,0,0-.09,7.08,38.61,38.61,0,0,1,11.6,3.69c3.7-9.12,19.23-38.78,62.44-30.83A95,95,0,0,0,122.21,66.49ZM15.94,146.27c.54.65,1.12,1.29,1.7,1.95l.44.5.48.47,1,.95a31.36,31.36,0,0,0,9.24,6.26,25.39,25.39,0,0,0,2.64,1l.66.21a5.09,5.09,0,0,0,.67.18l1.35.32a27.44,27.44,0,0,0,5.36.57l.66,0,.65,0L42,158.6c.84-.1,1.67-.14,2.47-.29a35.74,35.74,0,0,0,4.47-1c1.37-.39,2.6-.84,3.68-1.25.83-.34,1.56-.66,2.2-1a26.36,26.36,0,0,1-2.18-7.82l-2.51-.47a73.77,73.77,0,0,1-10.88-3,44.55,44.55,0,0,1-11.59-6.1A32.2,32.2,0,0,1,19,128a32.62,32.62,0,0,1-2.59-5.76,65.35,65.35,0,0,0-2,22C14.89,144.91,15.41,145.58,15.94,146.27Zm61,44.21a28.87,28.87,0,0,0,3.58-5.18,21.08,21.08,0,0,0,2.17-6.51,18.66,18.66,0,0,0,.26-3.41c0-.56,0-1.12-.09-1.67,0-.27,0-.55-.08-.82l-.13-.8a23.29,23.29,0,0,0-.72-3c-.15-.49-.31-1-.49-1.42-.1.53-.22,1.07-.36,1.63a34.59,34.59,0,0,1-1.47,4.55,29.75,29.75,0,0,1-2.42,4.77,28.47,28.47,0,0,1-7.88,8.36,32.94,32.94,0,0,1-10.12,4.57c-.89.24-1.76.44-2.62.61A44.67,44.67,0,0,0,76.46,191ZM41.46,84.63a45.25,45.25,0,0,0-1.64,11.49,32.24,32.24,0,0,0,2.44,12.61,32.74,32.74,0,0,0,7.23,10.5,43.6,43.6,0,0,0,8.68,6.58,26.6,26.6,0,0,1,7-7.12,53.21,53.21,0,0,1-4.46-13.1c-.25-1.34-.46-2.7-.59-4.1-.08-.7-.1-1.4-.15-2.11s-.06-1.42,0-2.14A37.25,37.25,0,0,1,61,88.66a38.21,38.21,0,0,1,3-8.06,42.46,42.46,0,0,1,4.48-6.93,53.12,53.12,0,0,1,5.17-5.61c1.78-1.64,3.53-3.09,5.2-4.35l.78-.58-1,.12C65.55,64.85,53.24,71,43,79.87,42.45,81.26,41.93,82.86,41.46,84.63Z"/><path class="cls-2" d="M172.45,170.23A36.74,36.74,0,0,1,148,161l7.5-9c5.19,4.28,10.62,7,17.21,7,5.19,0,8.32-2.06,8.32-5.44v-.16c0-3.21-2-4.86-11.61-7.33-11.62-3-19.11-6.18-19.11-17.63v-.16c0-10.47,8.4-17.39,20.18-17.39a33.37,33.37,0,0,1,21.42,7.34l-6.59,9.55c-5.11-3.54-10.13-5.68-15-5.68s-7.42,2.22-7.42,5v.17c0,3.79,2.47,5,12.44,7.57,11.7,3.05,18.29,7.25,18.29,17.3v.17C193.62,163.81,184.88,170.23,172.45,170.23Z"/><path class="cls-2" d="M235.65,169.41V146.26H212.26v23.15H199.58V111.75h12.68v22.81h23.39V111.75h12.69v57.66Z"/><path class="cls-2" d="M257.37,169.41V111.75h43.49V123H270v11.7h27.19V146H270v12.1h31.31v11.29Z"/><path class="cls-2" d="M308.13,169.41V111.75h12.69v46.13h28.75v11.53Z"/><path class="cls-2" d="M354.92,169.41V111.75H367.6v46.13h28.75v11.53Z"/><path class="cls-2" d="M436.71,169.41,424.35,151h-10v18.45H401.7V111.75h26.36c13.59,0,21.74,7.17,21.74,19v.16c0,9.31-5,15.16-12.35,17.87l14.08,20.6Zm.24-38c0-5.44-3.79-8.24-10-8.24H414.38v16.55h12.85c6.18,0,9.72-3.29,9.72-8.15Z"/><path class="cls-2" d="M456.31,169.41V111.75h43.5V123H468.92v11.7H496.1V146H468.92v12.1h31.3v11.29Z"/><path class="cls-2" d="M547.52,169.41,519.6,132.75v36.66H507.08V111.75h11.69l27,35.5v-35.5h12.52v57.66Z"/><path class="cls-2" d="M591.9,123.45v46H579.22v-46H561.67v-11.7h47.78v11.7Z"/></g></svg>